PathFileType	4	(X/Y/Z)	pose_F01_0-75.trc
DataRate	CameraRate	NumFrames	NumMarkers	Units	OrigDataRate	OrigDataStartFrame	OrigNumFrames
30	30	5	21	m	30	21	75
Frame#	Time	CHip			RHip			RKnee			RAnkle			RBigToe			RSmallToe			RHeel			LHip			LKnee			LAnkle			LBigToe			LSmallToe			LHeel			Neck			Nose			RShoulder			RElbow			RWrist			LShoulder			LElbow			LWrist			
		X1	Y1	Z1	X2	Y2	Z2	X3	Y3	Z3	X4	Y4	Z4	X5	Y5	Z5	X6	Y6	Z6	X7	Y7	Z7	X8	Y8	Z8	X9	Y9	Z9	X10	Y10	Z10	X11	Y11	Z11	X12	Y12	Z12	X13	Y13	Z13	X14	Y14	Z14	X15	Y15	Z15	X16	Y16	Z16	X17	Y17	Z17	X18	Y18	Z18	X19	Y19	Z19	X20	Y20	Z20	X21	Y21	Z21	
21	0.7	-0.1967579013024298	1.888954868867483	-0.7189192365464107	-0.21643396788183134	1.889638410268067	-0.6576242501106182	-0.24459825212998632	1.7398899983531222	-0.5527148931419565	-0.24492788398404422	1.5867696038270696	-0.511121874455674	-0.24132036020226097	1.5543661269284683	-0.5731995617204124	-0.24822941104134155	1.5560596118292858	-0.5353006999734503	-0.23813809760258234	1.575775790663957	-0.5076468453110238	-0.17263847662253445	1.8862378242454034	-0.7790761337019376	-0.17059490179739834	1.7365617982050239	-0.7794739988950382	-0.17082630870107762	1.6020732547010508	-0.6923602951930905	-0.1768733445576086	1.561707405314149	-0.7561043662568889	-0.16460675705250713	1.5728836397131651	-0.7649284710573919	-0.18061866836258403	1.5892394774347443	-0.6642856096081857	-0.17481776725822604	2.0661743559792516	-0.7742131778068357	-0.1854963335618391	2.116797868358197	-0.7694132534951457	-0.2038243709148728	2.0702548048443066	-0.6940349559163006	-0.24427668798939228	2.037522798264063	-0.5267160311134702	-0.2755431657211909	2.0170748340265305	-0.3893842843581191	-0.13903663938485286	2.0603909644909124	-0.8581460281576653	-1.3221420436846774	1.8705849178153287	0.4808704840890303	-0.19451047293451404	1.9030659762825224	-0.7130838547154995
22	0.7333333333333333	-0.19208833510891746	1.8902256289133976	-0.7237520796533636	-0.21285289379056563	1.8926995788393424	-0.6656980402574928	-0.2377613220205357	1.7414922323894269	-0.560246281008898	-0.24492788398404422	1.5867696038270696	-0.511121874455674	-0.24132036020226097	1.5543661269284683	-0.5731995617204124	-0.24822941104134155	1.5560596118292858	-0.5353006999734503	-0.23813809760258234	1.575775790663957	-0.5076468453110238	-0.1681653479965361	1.88743277780916	-0.7838493557376901	-0.16919050945415925	1.7379560926021305	-0.7849556634118529	-0.1708314146316578	1.602141604742463	-0.6924381555473132	-0.17797982257982686	1.5619856123309566	-0.7514832229516889	-0.16755537211104243	1.5716728590525488	-0.7660468179766444	-0.1805655550202726	1.589029698474314	-0.6643304124826918	-0.17027932843170995	2.0652107425664417	-0.7675445711623692	-0.18380288438972048	2.1264224518365955	-0.7870578221706174	-0.2037417506414792	2.072103170372054	-0.6945238364400377	-0.23050470717115307	2.017681635997399	-0.49568560899796993	-0.3111292541048366	2.0169138849249886	-0.5180236445675959	-0.13501041317605672	2.0611933728682588	-0.8539115384916954	-1.3221420436846774	1.8705849178153287	0.4808704840890303	-0.19451047293451404	1.9030659762825224	-0.7130838547154995
23	0.7666666666666667	-0.1856908670306423	1.8982502758549984	-0.7346394413940047	-0.20969383995558966	1.9007724682604132	-0.6775017466180137	-0.23461134795436725	1.7426441212710566	-0.5681945663776908	-0.24492788398404422	1.5867696038270696	-0.511121874455674	-0.24132036020226097	1.5543661269284683	-0.5731995617204124	-0.24822941104134155	1.5560596118292858	-0.5353006999734503	-0.23813809760258234	1.575775790663957	-0.5076468453110238	-1.1006329632583849	1.8096497630623378	0.1582604549274233	-0.16821107037554664	1.7367461070997299	-0.7819775136231952	-0.17306910374606674	1.6019037166880876	-0.6901066393630175	-0.17594836874782824	1.5604944384711121	-0.7530740210636763	-0.1669100033410042	1.5700535907948416	-0.7623102684498217	-0.18270425299870552	1.5882873125346386	-0.6622423378657583	-0.17031960879601532	2.0652998749145195	-0.7673851377699317	-0.17961186638920346	2.1305614665292585	-0.8141520616717748	-0.20586082482307777	2.0712161610017175	-0.6918794402387561	-0.23900684217849513	2.009268716871227	-0.5650027608411006	-0.2900762142278831	1.9855829075545288	-0.5384735421360646	-0.13514043128225517	2.0602067218796143	-0.8542778743841857	-1.3221420436846774	1.8705849178153287	0.4808704840890303	-0.19451047293451404	1.9030659762825224	-0.7130838547154995
24	0.8	-0.18578151887695268	1.8957429572474733	-0.7343926167916262	-0.20887902016498944	1.896488855582788	-0.6739039938788918	-0.23481137705963057	1.7337310702409963	-0.5884814808135544	-0.24492788398404422	1.5867696038270696	-0.511121874455674	-0.24132036020226097	1.5543661269284683	-0.5731995617204124	-0.24822941104134155	1.5560596118292858	-0.5353006999734503	-0.23813809760258234	1.575775790663957	-0.5076468453110238	-1.0927094531023251	1.8082805906319541	0.14394242167185198	-0.17192826626518923	1.735538435417865	-0.7740327386646616	-0.1752888124890759	1.6016798174546856	-0.6877907952824726	-0.1767410564242879	1.5604554038026595	-0.7562985352983161	-0.16662742771118533	1.571551394632305	-0.7629094251192705	-0.18128705744243737	1.58997438964127	-0.6554569471608446	-0.1748490122472259	2.0644467764984746	-0.7628368908963086	-0.1821386786868763	2.1288629190035855	-0.810397044097883	-0.20941293251967907	2.0686593932505213	-0.6840216908096558	-0.23025421271065277	1.9943028661494877	-0.6055882483042572	-0.2690231743509296	1.954251930184069	-0.5589234397045333	-0.13982315623422567	2.056288128673242	-0.8491907248585644	-1.3221420436846774	1.8705849178153287	0.4808704840890303	-0.19451047293451404	1.9030659762825224	-0.7130838547154995
25	0.8333333333333334	-0.1877907147802899	1.8929119920007693	-0.7316175808804763	-0.2109634489501234	1.8925136244696525	-0.6709631624144374	-0.22792424497435457	1.7280589607443004	-0.6039360656026995	-0.24492788398404422	1.5867696038270696	-0.511121874455674	-0.24132036020226097	1.5543661269284683	-0.5731995617204124	-0.24822941104134155	1.5560596118292858	-0.5353006999734503	-0.23813809760258234	1.575775790663957	-0.5076468453110238	-1.0860129896868214	1.8041148401978702	0.1360196684268178	-0.17221118814311723	1.7351864895644713	-0.7658762995230517	-0.1776686638946102	1.6000355986336494	-0.6850691266562163	-0.17361870138257582	1.560606457064046	-0.7553523621776769	-0.16378679928597414	1.5703155643675002	-0.7614667066934614	-0.18238349175791063	1.588082194579876	-0.6581477525274044	-0.17854278552723693	2.060180104511389	-0.7547357886728755	-0.18466549098454915	2.1271643714779125	-0.8066420265239913	-0.21337919740604283	2.0644100711802404	-0.6679471581740253	-0.2218445545572969	1.9811803474416507	-0.6302870619225711	-0.24797013447397612	1.922920952813609	-0.5793733372730021	-0.14452248363111406	2.055618283927546	-0.8446291884366908	-1.3221420436846774	1.8705849178153287	0.4808704840890303	-0.19451047293451404	1.9030659762825224	-0.7130838547154995
